<svg baseProfile="tiny" xmlns="http://www.w3.org/2000/svg" viewBox="0 0 344.13 72.32"><path d="M81.64 14.75h4.3v10.94h.11c.56-.92 1.16-1.76 1.73-2.58l6.24-8.36h5.33l-8.18 10.12 8.71 13.65H94.8l-6.7-10.9-2.15 2.54v8.36h-4.3V14.75zM108.98 27.62v3h-9v-3h9zM112.19 34.5c.95.6 2.82 1.27 4.37 1.27 1.91 0 2.75-.81 2.75-1.94 0-1.16-.71-1.73-2.82-2.5-3.35-1.13-4.73-2.96-4.73-5.01 0-3.03 2.5-5.36 6.49-5.36 1.91 0 3.56.46 4.59 1.02l-.88 3.03c-.71-.42-2.12-.99-3.63-.99-1.55 0-2.4.78-2.4 1.83 0 1.09.81 1.59 3 2.4 3.14 1.09 4.55 2.68 4.59 5.22 0 3.14-2.43 5.4-6.98 5.4-2.08 0-3.95-.49-5.22-1.2l.87-3.17zM140.41 34.4c0 1.55.07 3.07.28 4.13h-3.92l-.32-1.91h-.11c-1.02 1.34-2.82 2.29-5.08 2.29-3.46 0-5.4-2.5-5.4-5.12 0-4.3 3.85-6.53 10.2-6.49v-.28c0-1.13-.46-3-3.49-3-1.69 0-3.46.53-4.62 1.27l-.85-2.82c1.27-.78 3.49-1.52 6.21-1.52 5.5 0 7.09 3.49 7.09 7.27v6.18zm-4.24-4.27c-3.07-.04-6 .6-6 3.21 0 1.69 1.09 2.47 2.47 2.47 1.76 0 3-1.13 3.42-2.36.11-.32.11-.63.11-.95v-2.37zM144.99 26.46c0-1.98-.07-3.63-.14-5.12h3.7l.21 2.54h.11c.81-1.34 2.36-2.93 5.29-2.93 2.26 0 4.02 1.27 4.76 3.17h.08c.6-.95 1.31-1.66 2.08-2.15.99-.67 2.08-1.02 3.53-1.02 2.82 0 5.72 1.94 5.72 7.44v10.12h-4.23v-9.49c0-2.86-.99-4.55-3.07-4.55-1.48 0-2.58 1.06-3.03 2.29-.14.39-.21.95-.21 1.45v10.3h-4.23v-9.95c0-2.4-.95-4.09-2.96-4.09-1.62 0-2.72 1.27-3.14 2.43-.14.46-.21.95-.21 1.45v10.16h-4.23V26.46zM174.73 34.5c.95.6 2.82 1.27 4.37 1.27 1.91 0 2.75-.81 2.75-1.94 0-1.16-.71-1.73-2.82-2.5-3.35-1.13-4.73-2.96-4.73-5.01 0-3.03 2.5-5.36 6.49-5.36 1.91 0 3.56.46 4.59 1.02l-.88 3.03c-.71-.42-2.12-.99-3.63-.99-1.55 0-2.4.78-2.4 1.83 0 1.09.81 1.59 3 2.4 3.14 1.09 4.55 2.68 4.59 5.22 0 3.14-2.43 5.4-6.99 5.4-2.08 0-3.95-.49-5.22-1.2l.88-3.17zM197.13 38.91c-4.83 0-8.61-3.32-8.61-8.85 0-5.64 3.7-9.1 8.89-9.1 5.12 0 8.54 3.6 8.54 8.82 0 6.31-4.44 9.14-8.78 9.14h-.04zm-3.42-20.25c-1.23 0-2.15-.99-2.15-2.19s.95-2.15 2.22-2.15c1.16 0 2.08.92 2.08 2.15 0 1.2-.88 2.19-2.12 2.19h-.03zm3.56 17.11c2.47 0 4.2-2.4 4.2-5.89 0-2.68-1.2-5.79-4.16-5.79-3.07 0-4.3 3-4.3 5.86 0 3.32 1.66 5.82 4.23 5.82h.03zm3.42-17.11c-1.2 0-2.12-.99-2.12-2.19s.95-2.15 2.19-2.15c1.2 0 2.12.92 2.12 2.15 0 1.2-.88 2.19-2.12 2.19h-.07zM213.85 28.89h.07c.42-.67.92-1.41 1.34-2.01l4.2-5.54h5.22l-6.39 7.02 7.27 10.16h-5.33l-4.94-7.58-1.45 1.73v5.86h-4.34V13.44h4.34v15.45z"/><path fill="#C94A18" d="M57.5 42.69H33.26v5.92h24.32v.01c4.67.15 8.41 3.97 8.41 8.68 0 4.8-3.88 8.69-8.68 8.69-4.7 0-8.53-3.74-8.68-8.41h-.01v-5.34h-5.93v5.26c0 8.18 6.63 14.81 14.82 14.81 8.18 0 14.81-6.63 14.81-14.81-.01-8.18-6.64-14.81-14.82-14.81m-33.8-.02v14.9h-.01c-.15 4.67-3.97 8.41-8.68 8.41-4.8 0-8.69-3.89-8.69-8.68 0-4.7 3.74-8.53 8.41-8.68v-.02h5.34v-5.93h-5.26C6.63 42.67 0 49.31 0 57.49s6.63 14.82 14.81 14.82c8.19 0 14.82-6.63 14.82-14.82V33.25H23.7v9.42zm-8.88-13.04h24.24v-5.92H14.75v-.01c-4.67-.15-8.41-3.97-8.41-8.68 0-4.8 3.89-8.68 8.68-8.68 4.7 0 8.53 3.74 8.68 8.41h.01v5.34h5.93v-5.26C29.64 6.63 23.01 0 14.82 0 6.64 0 .01 6.63.01 14.81c0 8.19 6.63 14.82 14.81 14.82m33.79.01v-6.4h.01v-8.5h.01c.15-4.66 3.97-8.41 8.68-8.41 4.8 0 8.68 3.88 8.68 8.68 0 4.7-3.74 8.53-8.41 8.67v.01h-5.34v5.93h5.26c8.18 0 14.82-6.63 14.82-14.81C72.32 6.64 65.68 0 57.5 0S42.69 6.63 42.69 14.82v24.24h5.92v-9.42z"/><g><path d="M330.38 62.74h-4.57v3.57h5.11v1.82h-7.33V55.99h7.06v1.82h-4.84v3.13h4.57v1.8zM338.4 57.84h-3.46v-1.85h9.17v1.85h-3.49v10.28h-2.21V57.84zM81.05 56.15c.83-.14 2.07-.25 3.35-.25 1.75 0 2.94.29 3.75.97.67.56 1.04 1.4 1.04 2.43 0 1.57-1.06 2.63-2.2 3.04v.05c.86.32 1.39 1.17 1.69 2.34.38 1.51.7 2.92.95 3.38h-2.29c-.18-.36-.47-1.35-.81-2.86-.34-1.58-.92-2.09-2.18-2.12h-1.12v4.99h-2.2V56.15zm2.2 5.36h1.31c1.49 0 2.43-.79 2.43-2 0-1.33-.94-1.94-2.38-1.94-.7 0-1.15.05-1.37.11v3.83zM96.57 55.99v12.14h-2.21V55.99h2.21zM102.17 55.99h2.2v5.58h.05c.29-.47.59-.9.88-1.31l3.17-4.27h2.74l-4.18 5.17 4.45 6.97h-2.59l-3.44-5.56-1.08 1.3v4.27h-2.2V55.99zM115.65 65.71c.72.41 1.8.77 2.93.77 1.42 0 2.21-.67 2.21-1.66 0-.92-.61-1.46-2.16-2.02-2-.72-3.28-1.78-3.28-3.53 0-1.98 1.66-3.49 4.29-3.49 1.31 0 2.29.29 2.92.61l-.54 1.78c-.43-.23-1.28-.58-2.41-.58-1.4 0-2.02.76-2.02 1.46 0 .94.7 1.37 2.32 2 2.11.79 3.13 1.85 3.13 3.6 0 1.94-1.48 3.66-4.61 3.66-1.28 0-2.61-.38-3.28-.77l.5-1.83zM130.53 64.68l-1.04 3.44h-2.29l3.89-12.14h2.83l3.94 12.14h-2.38l-1.1-3.44h-3.85zm3.48-1.67l-.95-2.99c-.23-.74-.43-1.57-.61-2.27h-.04c-.18.7-.36 1.55-.58 2.27l-.94 2.99h3.12zM142.61 68.12V55.99h2.52l3.13 5.2c.81 1.35 1.51 2.75 2.07 4.07h.04c-.14-1.62-.2-3.19-.2-5.04v-4.23h2.05v12.14h-2.29l-3.17-5.35c-.77-1.31-1.58-2.81-2.18-4.18l-.05.02c.09 1.57.11 3.17.11 5.17v4.34h-2.03zM160.14 57.84h-3.46v-1.85h9.16v1.85h-3.49v10.28h-2.21V57.84zM172.53 55.99v12.14h-2.21V55.99h2.21zM178.12 55.99h2.2v5.58h.05c.29-.47.59-.9.88-1.31l3.17-4.27h2.74l-4.18 5.17 4.45 6.97h-2.59l-3.44-5.56-1.08 1.3v4.27h-2.2V55.99zM194.58 68.12l-3.92-12.14h2.41l1.66 5.51c.47 1.53.87 2.95 1.19 4.43h.04c.32-1.44.76-2.92 1.24-4.39l1.76-5.55h2.36l-4.2 12.14h-2.54zM207.1 64.68l-1.04 3.44h-2.29l3.89-12.14h2.83l3.94 12.14h-2.38l-1.1-3.44h-3.85zm3.48-1.67l-.95-2.99c-.23-.74-.43-1.57-.61-2.27h-.04c-.18.7-.36 1.55-.58 2.27l-.94 2.99h3.12zM219.24 56.15c.83-.14 2.07-.25 3.35-.25 1.75 0 2.93.29 3.75.97.67.56 1.04 1.4 1.04 2.43 0 1.57-1.06 2.63-2.2 3.04v.05c.86.32 1.39 1.17 1.69 2.34.38 1.51.7 2.92.95 3.38h-2.29c-.18-.36-.47-1.35-.81-2.86-.34-1.58-.92-2.09-2.18-2.12h-1.12v4.99h-2.2V56.15zm2.19 5.36h1.31c1.49 0 2.43-.79 2.43-2 0-1.33-.94-1.94-2.38-1.94-.7 0-1.15.05-1.37.11v3.83zM234.75 55.99v12.14h-2.21V55.99h2.21zM247.14 62.74h-4.57v3.57h5.11v1.82h-7.33V55.99h7.06v1.82h-4.84v3.13h4.57v1.8zM255.09 64.68l-1.04 3.44h-2.29l3.89-12.14h2.83l3.94 12.14h-2.38l-1.1-3.44h-3.85zm.29-9.43c-.61 0-1.06-.5-1.06-1.1 0-.61.47-1.08 1.08-1.08.6 0 1.04.47 1.04 1.08 0 .59-.43 1.1-1.04 1.1h-.02zm3.19 7.76l-.96-2.99c-.23-.74-.43-1.57-.61-2.27h-.04c-.18.7-.36 1.55-.58 2.27l-.94 2.99h3.13zm.36-7.76c-.61 0-1.04-.5-1.04-1.1 0-.61.45-1.08 1.08-1.08.6 0 1.04.47 1.04 1.08 0 .59-.43 1.1-1.06 1.1h-.02zM277.36 63.17c-.07-1.57-.16-3.46-.14-5.11h-.05c-.4 1.5-.9 3.13-1.44 4.66l-1.77 5.26h-1.71l-1.62-5.19c-.47-1.55-.9-3.21-1.22-4.74h-.04c-.05 1.6-.12 3.53-.21 5.19l-.27 4.88h-2.07l.81-12.14h2.92l1.58 4.88c.43 1.42.81 2.86 1.12 4.21h.05c.32-1.31.74-2.81 1.21-4.23l1.67-4.86h2.88l.7 12.14h-2.16l-.24-4.95zM285.04 56.15c.7-.14 1.98-.25 3.22-.25 1.64 0 2.65.2 3.48.77.76.45 1.26 1.24 1.26 2.27 0 1.12-.7 2.14-2.02 2.63v.04c1.28.32 2.45 1.33 2.45 3.01 0 1.08-.47 1.93-1.17 2.5-.87.76-2.29 1.13-4.5 1.13-1.22 0-2.16-.09-2.72-.16V56.15zm2.2 4.79h1.13c1.53 0 2.39-.72 2.39-1.75 0-1.13-.87-1.66-2.27-1.66-.65 0-1.03.04-1.26.09v3.32zm0 5.58c.29.05.67.05 1.17.05 1.42 0 2.68-.54 2.68-2.03 0-1.4-1.22-1.98-2.76-1.98h-1.1v3.96zM305.26 62.74h-4.57v3.57h5.11v1.82h-7.33V55.99h7.06v1.82h-4.84v3.13h4.57v1.8zM313.29 57.84h-3.46v-1.85H319v1.85h-3.49v10.28h-2.21V57.84z"/></g><path d="M80.89 47.78h263.24v1H80.89z"/></svg>