<svg xmlns="http://www.w3.org/2000/svg" version="1.1" xmlns:xlink="http://www.w3.org/1999/xlink" xmlns:svgjs="http://svgjs.dev/svgjs" width="24" height="24"><svg version="1.1" width="24" height="24" viewBox="0 0 24 24" id="SvgjsSvg1009" xmlns="http://www.w3.org/2000/svg" xmlns:svg="http://www.w3.org/2000/svg">
  <defs id="SvgjsDefs1008"></defs>
  <path d="M 17.502,12.033 13.261,9.575 15.399,4.444 C 15.465,4.31 15.502,4.159 15.502,4 15.502,3.448 15.057,3 14.505,3 14.256,3.004 14.048,3.083 13.883,3.214 13.85,3.24 13.83,3.256 13.813,3.274 l -7.5,7.1 c -0.229,0.217 -0.342,0.529 -0.306,0.842 0.036,0.313 0.219,0.591 0.491,0.75 l 4.242,2.46 -2.163,5.19 C 8.394,20.052 8.543,20.556 8.931,20.824 9.104,20.942 9.303,21 9.5,21 c 0.248,0 0.496,-0.093 0.688,-0.274 l 7.5,-7.102 c 0.229,-0.217 0.342,-0.529 0.306,-0.842 -0.037,-0.313 -0.22,-0.591 -0.492,-0.749 z" id="SvgjsPath1007" style="fill:#f0c926;fill-opacity:1"></path>
</svg><style>@media (prefers-color-scheme: light) { :root { filter: none; } }
@media (prefers-color-scheme: dark) { :root { filter: none; } }
</style></svg>